# xmcd
#
# Track frame offsets:
#	150
#	10150
#	20375
#	32870
#	43870
#	55670
#	65963
#	77775
#	89033
#	99260
#	109653
#	120358
#	130545
#	138463
#	147093
#	158060
#
# Disc length: 2264 seconds
#
# Revision: 1
# Processed by: cddbd v1.5.1PL0 Copyright (c) Steve Scherf et al.
# Submitted via: MusicWizard 7.1.1b
#
DISCID=d108d610
DTITLE=Conway Twitty - Greatest Hits
DYEAR=1900
DGENRE=Rock´n´Roll
TTITLE0=It´s Only Make Believe
TTITLE1=Lonely Blue Boy
TTITLE2=Danny Boy
TTITLE3=Mona Lisa
TTITLE4=What Am I Living For
TTITLE5=The Story Of My Love
TTITLE6=Is A Bluebird Blue
TTITLE7=Heavenly
TTITLE8=I´ll Try
TTITLE9=Halfway To Heaven
TTITLE10=Make Me Know You´ll Mine
TTITLE11=Sweet Sorrow
TTITLE12=Hey Little Lucy
TTITLE13=She´s Mine
TTITLE14=The Hurt Is In My Heart
TTITLE15=Shake It Up Baby
EXTD=
EXTT0=Yesterday: 04.02.1994
EXTT1=Yesterday: 28.04.1995
EXTT2=Yesterday: 31.03.1994
EXTT3=Yesterday: 13.10.1995 , 03.12.2004
EXTT4=Yesterday: 29.03.1996
EXTT5=Yesterday: 12.06.1998
EXTT6=
EXTT7=
EXTT8=
EXTT9=
EXTT10=
EXTT11=
EXTT12=Yesterday: 13.09.96 , 07.11.03
EXTT13=
EXTT14=
EXTT15=
PLAYORDER=
